<?xml version="1.0" encoding="utf-8"?>
<!-- Generator: Adobe Illustrator 27.1.1, SVG Export Plug-In . SVG Version: 6.00 Build 0)  -->
<svg version="1.1" id="Layer_1" xmlns="http://www.w3.org/2000/svg" xmlns:xlink="http://www.w3.org/1999/xlink" x="0px" y="0px"
	 viewBox="0 0 96.4 50" style="enable-background:new 0 0 96.4 50;" xml:space="preserve">
<g>
	<g id="g881_00000069361866024822696270000011771325820868730012_" transform="translate(227.1433,91.5966)">
		
			<path id="path883_00000137121628438070541380000016531633554824332167_" style="fill-rule:evenodd;clip-rule:evenodd;fill:#006DB7;" d="
			M-217.95-66.24c0.82,0,1.57,0.34,2.1,0.88l0.55-0.55c-0.68-0.69-1.62-1.11-2.66-1.11c-1.04,0-1.99,0.43-2.66,1.12l0.56,0.54
			C-219.52-65.9-218.77-66.24-217.95-66.24 M-217.95-63.29l-0.89-0.87c0.23-0.23,0.54-0.38,0.89-0.38c0.35,0,0.66,0.14,0.89,0.37
			L-217.95-63.29z M-219.2-64.52l-0.48-0.47c0.44-0.45,1.06-0.73,1.74-0.73c0.68,0,1.29,0.28,1.73,0.73l-0.48,0.47
			c-0.32-0.32-0.76-0.52-1.25-0.52C-218.44-65.05-218.88-64.84-219.2-64.52 M-220.96-66.25l-0.51-0.5c0.9-0.91,2.14-1.48,3.53-1.48
			c1.38,0,2.62,0.57,3.52,1.48l-0.51,0.5c-0.77-0.78-1.83-1.26-3.01-1.26C-219.13-67.52-220.2-67.03-220.96-66.25"/>
	</g>
	<g id="g885_00000009553656324600822820000004308118356528439459_" transform="translate(221.8322,85.9599)">
		
			<path id="path887_00000162322407815030602500000002706906129063692200_" style="fill-rule:evenodd;clip-rule:evenodd;fill:#006DB7;" d="
			M-215.96-57.07h6.59c-4.73,11.96-5.54,18.96-0.76,18.78C-220.65-37.68-219.28-47.9-215.96-57.07"/>
	</g>
	<g id="g889_00000039104584391790183110000001783439834830981299_" transform="translate(231.513,115.1887)">
		
			<path id="path891_00000170964496586768633030000004266069427674310037_" style="fill-rule:evenodd;clip-rule:evenodd;fill:#F16127;" d="
			M-219.58-104.62c6.01-9.8,15.75-10.79,22.69-7.23c7.7,3.97,10.09,13.13,8.17,21.18c-1.69,7.35-6.53,14.06-12.78,18.38
			c-3.79,2.57-8.08,4.29-12.75,5.05c3.5-1.05,6.62-3.24,9.07-5.92c1.52-1.63,2.86-3.5,3.91-5.43c3.56-4.78,5.19-9.45,5.31-13.53
			c0.23-5.48-2.16-10.91-7.17-13.42C-207.5-107.77-213.39-107.65-219.58-104.62"/>
	</g>
	<g id="g893_00000177482224724026437850000007190083093466558388_" transform="translate(224.2523,97.5955)">
		
			<path id="path895_00000099643629137134163550000007192791886481800331_" style="fill-rule:evenodd;clip-rule:evenodd;fill:#00A14B;" d="
			M-216.87-76c4.9-9.68,14.99-10.38,20.94-6.18c2.39,1.69,3.91,4.08,4.61,6.94c0.82,3.56,0.23,7.29-1.11,10.79
			c-1.17,3.15-3.09,6.3-5.48,8.87c-3.38,3.73-8.23,6.59-13.42,6.53c-1.98,0-3.97-0.47-5.89-1.57c2.45,1.17,6.24,0.76,8.58-0.17
			c3.85-1.58,6.94-4.84,8.87-8.46c2.39-4.43,4.26-11.55,0.47-15.63C-202.75-78.68-209.63-79.97-216.87-76"/>
	</g>
	<g id="g897_00000163053272251208372270000015095634288917444795_" transform="translate(286.9838,92.3979)">
		<path id="path899_00000078740524919188242930000005905101800869773219_" style="fill:#FFFFFF;" d="M-240.29-67.54h2.02
			c1.01,0,1.72,0.29,2.14,0.87c0.41,0.58,0.52,1.32,0.32,2.23c-0.2,0.94-0.65,1.72-1.33,2.34c-0.68,0.62-1.43,0.93-2.24,0.93h-3.13
			L-240.29-67.54z M-239.37-66.48l-1.48,4.24h1.21c0.63,0,1.17-0.21,1.62-0.63c0.45-0.42,0.74-0.95,0.88-1.6
			c0.13-0.6,0.05-1.08-0.23-1.45c-0.29-0.37-0.74-0.56-1.37-0.56H-239.37z M-234.09-66.59c0.04-0.18,0.13-0.33,0.28-0.46
			c0.15-0.13,0.31-0.19,0.48-0.19c0.17,0,0.31,0.06,0.4,0.19c0.09,0.13,0.12,0.28,0.08,0.46c-0.04,0.18-0.13,0.34-0.28,0.46
			c-0.15,0.13-0.31,0.19-0.49,0.19c-0.17,0-0.3-0.06-0.4-0.19C-234.11-66.25-234.13-66.41-234.09-66.59 M-233.27-65.42l-1.49,4.24
			h-1.2l1.49-4.24H-233.27z M-228.48-65.42l-0.32,0.93h-0.65c0.05,0.22,0.05,0.45,0,0.67c-0.09,0.43-0.33,0.8-0.7,1.1
			c-0.37,0.3-0.81,0.45-1.33,0.45c-0.26,0-0.45,0.01-0.57,0.04c-0.12,0.03-0.19,0.09-0.21,0.19c-0.01,0.05,0.01,0.1,0.08,0.14
			c0.06,0.04,0.34,0.11,0.84,0.19c0.5,0.09,0.83,0.24,1.01,0.46c0.18,0.22,0.23,0.5,0.15,0.82c-0.2,0.92-1,1.38-2.38,1.38
			c-0.64,0-1.1-0.09-1.38-0.28c-0.28-0.19-0.39-0.44-0.32-0.76c0.09-0.42,0.49-0.73,1.21-0.95c-0.33-0.19-0.46-0.46-0.39-0.78
			c0.09-0.39,0.41-0.66,0.99-0.78c-0.4-0.29-0.55-0.7-0.43-1.23c0.09-0.43,0.34-0.8,0.74-1.12c0.4-0.32,0.87-0.48,1.39-0.48H-228.48
			z M-231.38-63.05c0.44,0,0.73-0.3,0.86-0.91c0.04-0.19,0.02-0.34-0.05-0.44c-0.08-0.11-0.2-0.16-0.38-0.16
			c-0.44,0-0.73,0.31-0.86,0.93C-231.9-63.24-231.76-63.05-231.38-63.05 M-231.33-60.24c0.04-0.2-0.12-0.34-0.48-0.42l-0.5-0.12
			c-0.11,0-0.27,0.04-0.48,0.12c-0.21,0.08-0.33,0.21-0.37,0.38c-0.06,0.29,0.2,0.44,0.79,0.44c0.33,0,0.58-0.03,0.74-0.09
			C-231.46-59.99-231.36-60.1-231.33-60.24 M-227.42-66.59c0.04-0.18,0.13-0.33,0.28-0.46c0.15-0.13,0.31-0.19,0.48-0.19
			c0.17,0,0.31,0.06,0.4,0.19c0.09,0.13,0.12,0.28,0.08,0.46c-0.04,0.18-0.13,0.34-0.28,0.46c-0.15,0.13-0.31,0.19-0.48,0.19
			c-0.17,0-0.3-0.06-0.4-0.19C-227.44-66.25-227.46-66.41-227.42-66.59 M-226.6-65.42l-1.49,4.24h-1.2l1.49-4.24H-226.6z
			 M-223.66-66.31l-0.36,0.89h0.89l-0.36,0.93h-0.89l-0.53,1.37c-0.05,0.12-0.08,0.23-0.1,0.33c-0.08,0.37,0,0.56,0.24,0.56
			c0.14,0,0.39-0.09,0.75-0.26l-0.24,1.11c-0.39,0.18-0.76,0.27-1.09,0.27c-0.39,0-0.67-0.13-0.84-0.39
			c-0.17-0.26-0.21-0.6-0.12-1.01c0.03-0.13,0.07-0.25,0.12-0.37l0.63-1.61h-0.82l0.36-0.93h0.82l0.34-0.89H-223.66z M-218.45-65.35
			l-1.47,4.17h-1.2l0.14-0.39c-0.44,0.32-0.87,0.47-1.27,0.47c-0.41,0-0.71-0.17-0.9-0.51c-0.19-0.34-0.23-0.78-0.12-1.31
			c0.17-0.76,0.55-1.38,1.16-1.86c0.61-0.48,1.38-0.72,2.33-0.72C-219.31-65.49-218.87-65.44-218.45-65.35 M-220.68-62.41l0.71-2.02
			c-0.09-0.01-0.17-0.01-0.26-0.01c-0.48,0-0.88,0.15-1.19,0.46c-0.31,0.31-0.52,0.68-0.61,1.13c-0.06,0.25-0.05,0.45,0.03,0.6
			c0.07,0.14,0.2,0.22,0.38,0.22C-221.34-62.03-221.02-62.16-220.68-62.41 M-215.35-67.54l-2.24,6.37h-1.2l2.24-6.37H-215.35z
			 M-210.37-67.54l-2.24,6.37h-1.29l2.24-6.37H-210.37z M-208.66-65.42l-0.17,0.48c0.53-0.37,1.03-0.55,1.5-0.55
			c0.35,0,0.6,0.11,0.74,0.34c0.14,0.23,0.16,0.55,0.07,0.96c-0.03,0.12-0.06,0.25-0.11,0.38l-0.92,2.62h-1.2l0.89-2.53
			c0.03-0.07,0.05-0.15,0.07-0.22c0.09-0.42,0.01-0.63-0.24-0.63c-0.29,0-0.67,0.22-1.15,0.65l-0.96,2.73h-1.2l1.5-4.24H-208.66z
			 M-200.45-67.54l-2.22,6.31c-0.53,0.09-1.01,0.14-1.42,0.14c-0.71,0-1.24-0.18-1.58-0.55c-0.34-0.37-0.44-0.86-0.31-1.48
			c0.14-0.65,0.49-1.21,1.04-1.67c0.55-0.46,1.21-0.69,1.98-0.69c0.12,0,0.32,0.01,0.58,0.05l0.74-2.1H-200.45z M-203.54-62.17
			l0.78-2.2c-0.1-0.02-0.2-0.02-0.3-0.02c-0.43,0-0.79,0.12-1.1,0.37c-0.31,0.25-0.5,0.55-0.58,0.91c-0.07,0.31-0.02,0.55,0.13,0.73
			c0.15,0.18,0.4,0.27,0.73,0.27C-203.8-62.12-203.68-62.14-203.54-62.17 M-199.77-66.59c0.04-0.18,0.13-0.33,0.28-0.46
			c0.15-0.13,0.31-0.19,0.48-0.19c0.17,0,0.31,0.06,0.4,0.19c0.09,0.13,0.12,0.28,0.08,0.46c-0.04,0.18-0.13,0.34-0.28,0.46
			c-0.15,0.13-0.31,0.19-0.49,0.19c-0.17,0-0.3-0.06-0.4-0.19C-199.78-66.25-199.81-66.41-199.77-66.59 M-198.94-65.42l-1.49,4.24
			h-1.2l1.49-4.24H-198.94z M-194.04-65.35l-1.47,4.17h-1.2l0.14-0.39c-0.45,0.32-0.87,0.47-1.27,0.47c-0.41,0-0.71-0.17-0.9-0.51
			c-0.19-0.34-0.23-0.78-0.12-1.31c0.17-0.76,0.55-1.38,1.16-1.86c0.61-0.48,1.38-0.72,2.32-0.72
			C-194.9-65.49-194.46-65.44-194.04-65.35 M-196.27-62.41l0.71-2.02c-0.09-0.01-0.17-0.01-0.26-0.01c-0.48,0-0.88,0.15-1.19,0.46
			c-0.31,0.31-0.52,0.68-0.61,1.13c-0.06,0.25-0.05,0.45,0.03,0.6c0.07,0.14,0.2,0.22,0.38,0.22
			C-196.93-62.03-196.61-62.16-196.27-62.41"/>
	</g>
	<g id="g901_00000171695752373475384600000000225138479461592502_" transform="translate(284.225,74.6831)">
		
			<path id="path903_00000074412365192286466970000014323186645175873184_" style="fill-rule:evenodd;clip-rule:evenodd;fill:#FFFFFF;" d="
			M-239.26-38.73v1.62h-0.41v-3.84h1.01c0.35,0,0.72,0.07,1.01,0.29c0.26,0.21,0.37,0.49,0.37,0.82c0,0.33-0.11,0.61-0.37,0.82
			c-0.28,0.22-0.65,0.29-1.01,0.29H-239.26z M-239.26-39.11h0.69c0.22,0,0.46-0.04,0.64-0.19c0.16-0.14,0.22-0.32,0.22-0.53
			c0-0.21-0.06-0.4-0.22-0.54c-0.17-0.15-0.41-0.19-0.64-0.19h-0.69V-39.11z"/>
	</g>
	<g id="g905_00000168828535005467764360000015502050846321564042_" transform="translate(290.0149,72.0768)">
		
			<path id="path907_00000003807869211239279330000012175121909540703881_" style="fill-rule:evenodd;clip-rule:evenodd;fill:#FFFFFF;" d="
			M-241.42-34.49c-0.38,0-0.71-0.12-0.97-0.39c-0.27-0.28-0.38-0.62-0.38-1c0-0.38,0.11-0.73,0.38-1c0.26-0.27,0.6-0.39,0.97-0.39
			c0.38,0,0.71,0.12,0.97,0.39c0.27,0.28,0.38,0.62,0.38,1c0,0.38-0.11,0.72-0.38,1C-240.71-34.61-241.04-34.49-241.42-34.49
			 M-241.42-34.87c0.27,0,0.49-0.1,0.67-0.29c0.19-0.2,0.28-0.44,0.28-0.71c0-0.28-0.09-0.52-0.28-0.72
			c-0.18-0.19-0.41-0.29-0.67-0.29s-0.49,0.1-0.68,0.29c-0.19,0.2-0.28,0.44-0.28,0.72c0,0.28,0.09,0.51,0.28,0.71
			C-241.91-34.97-241.69-34.87-241.42-34.87"/>
	</g>
	<g id="g909_00000153673560849484226810000011393659488131541151_" transform="translate(294.7468,73.1805)">
		
			<path id="path911_00000165950503801599152750000000780948255174750654_" style="fill-rule:evenodd;clip-rule:evenodd;fill:#FFFFFF;" d="
			M-243.18-36.28l0.76-2.14h0.25l0.77,2.14l0.8-2.1h0.38l-1.08,2.79h-0.25l-0.76-2.09l-0.76,2.09h-0.25l-1.08-2.79h0.41
			L-243.18-36.28z"/>
	</g>
	<g id="g913_00000176736564431820483720000017924903424088382886_" transform="translate(300.6178,74.3042)">
		
			<path id="path915_00000093870963226379978450000002196927844504278966_" style="fill-rule:evenodd;clip-rule:evenodd;fill:#FFFFFF;" d="
			M-245.38-38.11L-245.38-38.11c0,0.28,0.1,0.51,0.29,0.7c0.2,0.2,0.43,0.29,0.71,0.29c0.16,0,0.32-0.03,0.48-0.08
			c0.16-0.06,0.31-0.15,0.44-0.26l0.09-0.08v0.43l-0.02,0.02c-0.14,0.12-0.3,0.22-0.48,0.29c-0.17,0.06-0.35,0.09-0.53,0.09
			c-0.38,0-0.72-0.12-1-0.39c-0.27-0.27-0.39-0.61-0.39-1c0-0.37,0.09-0.72,0.34-1c0.23-0.27,0.52-0.39,0.87-0.39
			c0.35,0,0.66,0.1,0.89,0.37c0.23,0.26,0.3,0.61,0.31,0.95l0,0.06H-245.38z M-243.79-38.44c-0.03-0.15-0.09-0.29-0.18-0.4
			c-0.15-0.19-0.35-0.26-0.59-0.26c-0.24,0-0.42,0.11-0.57,0.29c-0.09,0.11-0.16,0.24-0.2,0.38H-243.79z"/>
	</g>
	<g id="g917_00000094583224128198618500000002968361167230648968_" transform="translate(305.8203,75.8871)">
		
			<path id="path919_00000020366100903924600620000015484002271250991264_" style="fill-rule:evenodd;clip-rule:evenodd;fill:#FFFFFF;" d="
			M-247.32-40.69c0.25-0.4,0.71-0.59,1.16-0.34c0.01,0.01,0.02,0.01,0.03,0.02v0.03v0.29v0.12c-0.03-0.03-0.01,0.01-0.04-0.01
			c-0.63-0.35-1.02,0.15-1.15,0.5v1.76h-0.39v-0.06v-2.67v-0.06h0.06h0.14h0.14h0.06V-40.69z"/>
	</g>
	<g id="g921_00000060721033578734344640000005168104283118068408_" transform="translate(312.2442,77.5956)">
		
			<path id="path923_00000083057225402163996110000011184374674338110399_" style="fill-rule:evenodd;clip-rule:evenodd;fill:#FFFFFF;" d="
			M-249.72-43.47h-1.24v-0.35h2.89v0.35h-1.24v3.41h-0.42V-43.47z"/>
	</g>
	<g id="g925_00000124879535636600510260000009403299658828825242_" transform="translate(322.9901,77.5003)">
		
			<path id="path927_00000052064113516613927030000009792150962688770706_" style="fill-rule:evenodd;clip-rule:evenodd;fill:#FFFFFF;" d="
			M-253.73-43.31v1.23h1.57v0.37h-1.57v1.38h1.85v0.37h-2.27v-3.7h2.2v0.37H-253.73z"/>
	</g>
	<g id="g929_00000019653767328057968920000011150306727341671612_" transform="translate(327.7564,75.9856)">
		
			<path id="path931_00000183935891727277068830000017343044103012493734_" style="fill-rule:evenodd;clip-rule:evenodd;fill:#FFFFFF;" d="
			M-255.51-40.85c0.2-0.23,0.45-0.36,0.77-0.36c0.28,0,0.53,0.09,0.73,0.29c0.06,0.07,0.12,0.14,0.16,0.22l0.06-0.09
			c0.21-0.27,0.48-0.43,0.83-0.43c0.29,0,0.53,0.09,0.73,0.29c0.2,0.21,0.28,0.48,0.28,0.76v1.67h-0.4v-1.64
			c0-0.19-0.05-0.36-0.18-0.5c-0.12-0.13-0.28-0.19-0.47-0.19c-0.25,0-0.44,0.14-0.59,0.31c-0.05,0.05-0.09,0.11-0.13,0.18v1.85
			h-0.4v-1.64c0-0.19-0.05-0.36-0.18-0.5c-0.12-0.13-0.28-0.19-0.47-0.19c-0.25,0-0.44,0.14-0.59,0.31
			c-0.05,0.05-0.09,0.11-0.13,0.18v1.85h-0.4v-2.66h0.4V-40.85z"/>
	</g>
	<g id="g933_00000037684942034764909310000004054048753711168946_" transform="translate(337.4339,75.7111)">
		<path id="path935_00000036228462605734827260000017051265711691539084_" style="fill:#FFFFFF;" d="M-259.12-40.4
			c-0.34-0.22-0.83-0.17-1.23,0.37v1.08c0.42,0.44,0.95,0.49,1.3,0.23C-258.52-39.11-258.55-40.04-259.12-40.4 M-260.76-40.88
			L-260.76-40.88h0.4c0,0.11,0,0.22,0,0.33c0.08-0.15,0.23-0.24,0.38-0.3c0.48-0.17,1.07-0.11,1.43,0.28
			c0.5,0.58,0.48,1.51,0.01,2.02c-0.48,0.54-1.21,0.41-1.79,0.11c-0.02-0.01-0.03-0.02-0.05-0.02v1.3h-0.4V-40.88z"/>
	</g>
	
		<path id="path937_00000155845910928491660050000001452724992955987857_" style="fill-rule:evenodd;clip-rule:evenodd;fill:#FFFFFF;" d="
		M43.64,31.87h7.68v0.44h-7.68V31.87z"/>
	
		<path id="path939_00000122706345558700290110000018119038268501475991_" style="fill-rule:evenodd;clip-rule:evenodd;fill:#FFFFFF;" d="
		M57.51,31.87h34.96v0.44H57.51V31.87z"/>
	<g id="g941_00000175303655395403985240000015669141624873882804_" transform="translate(316.6415,72.1859)">
		
			<path id="path943_00000120531190977494413870000007831007764930423456_" style="fill-rule:evenodd;clip-rule:evenodd;fill:#FFFFFF;" d="
			M-251.36-34.67c-0.38,0-0.71-0.12-0.97-0.39c-0.27-0.28-0.38-0.62-0.38-1c0-0.38,0.11-0.73,0.38-1c0.26-0.27,0.6-0.39,0.97-0.39
			s0.71,0.12,0.97,0.39c0.27,0.27,0.38,0.62,0.38,1c0,0.38-0.11,0.72-0.38,1C-250.65-34.78-250.98-34.67-251.36-34.67
			 M-251.36-35.05c0.27,0,0.49-0.1,0.67-0.29c0.19-0.2,0.28-0.44,0.28-0.71c0-0.28-0.09-0.52-0.28-0.72
			c-0.18-0.19-0.41-0.29-0.67-0.29s-0.49,0.1-0.68,0.29c-0.19,0.2-0.28,0.44-0.28,0.72c0,0.28,0.09,0.51,0.28,0.71
			C-251.85-35.14-251.63-35.05-251.36-35.05"/>
	</g>
	<g id="g945_00000014613009065505769450000009410702467271165089_" transform="translate(341.9013,72.1859)">
		
			<path id="path947_00000168820827906468601750000010257248150522985367_" style="fill-rule:evenodd;clip-rule:evenodd;fill:#FFFFFF;" d="
			M-260.79-34.67c-0.38,0-0.71-0.12-0.97-0.39c-0.27-0.28-0.38-0.62-0.38-1c0-0.38,0.11-0.73,0.38-1c0.26-0.27,0.6-0.39,0.97-0.39
			s0.71,0.12,0.97,0.39c0.27,0.27,0.38,0.62,0.38,1c0,0.38-0.11,0.72-0.38,1C-260.08-34.78-260.41-34.67-260.79-34.67
			 M-260.79-35.05c0.27,0,0.49-0.1,0.67-0.29c0.19-0.2,0.28-0.44,0.28-0.71c0-0.28-0.09-0.52-0.28-0.72
			c-0.18-0.19-0.41-0.29-0.67-0.29s-0.49,0.1-0.68,0.29c-0.19,0.2-0.28,0.44-0.28,0.72c0,0.28,0.09,0.51,0.28,0.71
			C-261.28-35.14-261.06-35.05-260.79-35.05"/>
	</g>
	<g id="g949_00000114043208077331542090000002014296008828507563_" transform="translate(346.6331,73.1392)">
		
			<path id="path951_00000101805693329306843540000016107026439682675372_" style="fill-rule:evenodd;clip-rule:evenodd;fill:#FFFFFF;" d="
			M-262.55-36.22l0.76-2.14h0.25l0.77,2.14l0.8-2.1h0.38l-1.08,2.79h-0.25l-0.76-2.09l-0.76,2.09h-0.25l-1.08-2.79h0.41
			L-262.55-36.22z"/>
	</g>
	<g id="g953_00000013895867585561350590000004604379048078448298_" transform="translate(352.5042,74.3042)">
		
			<path id="path955_00000102510748342228221240000002983953295361843113_" style="fill-rule:evenodd;clip-rule:evenodd;fill:#FFFFFF;" d="
			M-264.75-38.11L-264.75-38.11c0,0.28,0.1,0.51,0.29,0.7c0.2,0.2,0.43,0.29,0.71,0.29c0.16,0,0.32-0.03,0.48-0.08
			c0.16-0.06,0.31-0.15,0.44-0.26l0.09-0.08v0.43l-0.02,0.02c-0.14,0.12-0.3,0.22-0.48,0.29c-0.17,0.06-0.35,0.09-0.53,0.09
			c-0.38,0-0.72-0.12-1-0.39c-0.27-0.27-0.39-0.61-0.39-1c0-0.37,0.09-0.72,0.34-1c0.23-0.27,0.52-0.39,0.87-0.39
			c0.35,0,0.66,0.1,0.89,0.37c0.23,0.26,0.3,0.61,0.31,0.95l0,0.06H-264.75z M-263.16-38.44c-0.03-0.15-0.09-0.29-0.18-0.4
			c-0.15-0.19-0.35-0.26-0.59-0.26c-0.24,0-0.42,0.11-0.57,0.29c-0.09,0.11-0.16,0.24-0.2,0.38H-263.16z"/>
	</g>
	<g id="g957_00000096769713170239597570000013288576543606397626_" transform="translate(357.7066,75.9255)">
		
			<path id="path959_00000041982015573232157890000006913866292241352352_" style="fill-rule:evenodd;clip-rule:evenodd;fill:#FFFFFF;" d="
			M-266.69-40.75c0.25-0.4,0.71-0.59,1.16-0.34c0.01,0.01,0.02,0.01,0.03,0.02v0.03v0.29v0.12c-0.03-0.03-0.01,0.01-0.04-0.01
			c-0.63-0.35-1.02,0.15-1.15,0.5v1.76h-0.39v-0.06v-2.67v-0.06h0.06h0.14h0.14h0.06V-40.75z"/>
	</g>
</g>
</svg>
