<?xml version="1.0" encoding="utf-8"?>
<!-- Generator: Adobe Illustrator 27.1.1, SVG Export Plug-In . SVG Version: 6.00 Build 0)  -->
<svg version="1.1" id="Layer_1" xmlns="http://www.w3.org/2000/svg" xmlns:xlink="http://www.w3.org/1999/xlink" x="0px" y="0px"
	 viewBox="0 0 120 50" style="enable-background:new 0 0 120 50;" xml:space="preserve">
<path style="fill:#F89521;" d="M35.34,19.13h9.29v1.61h-9.29V19.13z"/>
<path style="fill:#FFFFFF;" d="M35.34,22.36h9.29v-1.61h-9.29V22.36z"/>
<path style="fill:#08A650;" d="M35.34,22.36h9.29v1.61h-9.29V22.36z"/>
<g>
	<path style="fill:#FFFFFF;" d="M20.81,8.81c4.33,0,8.26,1.76,11.1,4.6c2.84,2.84,4.6,6.77,4.6,11.1c0,4.34-1.76,8.26-4.6,11.1
		c-2.84,2.84-6.77,4.6-11.1,4.6c-4.34,0-8.26-1.76-11.1-4.6c-2.84-2.84-4.6-6.77-4.6-11.1c0-4.34,1.76-8.26,4.6-11.1
		C12.55,10.56,16.48,8.81,20.81,8.81 M30.87,14.45c-2.57-2.57-6.13-4.17-10.06-4.17s-7.48,1.59-10.06,4.17
		c-2.57,2.57-4.16,6.13-4.16,10.06c0,3.93,1.59,7.48,4.16,10.06c2.57,2.57,6.13,4.17,10.06,4.17s7.48-1.59,10.06-4.17
		c2.57-2.57,4.16-6.13,4.16-10.06C35.04,20.58,33.44,17.03,30.87,14.45 M58.99,8.81c4.33,0,8.26,1.76,11.1,4.6
		c2.84,2.84,4.6,6.77,4.6,11.1c0,4.34-1.76,8.26-4.6,11.1c-2.84,2.84-6.77,4.6-11.1,4.6c-4.34,0-8.26-1.76-11.1-4.6
		c-2.84-2.84-4.6-6.77-4.6-11.1c0-4.34,1.76-8.26,4.6-11.1C50.73,10.56,54.65,8.81,58.99,8.81 M69.04,14.45
		c-2.57-2.57-6.13-4.17-10.06-4.17c-3.93,0-7.48,1.59-10.06,4.17c-2.57,2.57-4.17,6.13-4.17,10.06c0,3.93,1.59,7.48,4.17,10.06
		c2.57,2.57,6.13,4.17,10.06,4.17c3.93,0,7.48-1.59,10.06-4.17c2.57-2.57,4.17-6.13,4.17-10.06C73.21,20.58,71.62,17.03,69.04,14.45
		"/>
	<path style="fill:#FFFFFF;" d="M4.45,23.66c-0.37,0.17-0.81,0.01-0.98-0.36c-0.17-0.37-0.01-0.81,0.36-0.98L48.62,1.7
		c0.03-0.01,0.06-0.02,0.08-0.03c3.27-1.3,6.36-1.33,8.74-0.45c1.41,0.52,2.59,1.37,3.41,2.46c0.83,1.1,1.29,2.45,1.29,3.96
		c0,2.23-1.02,4.81-3.41,7.5c-0.27,0.31-0.74,0.33-1.04,0.06c-0.31-0.27-0.33-0.74-0.06-1.04c2.13-2.4,3.04-4.64,3.04-6.53
		c0-1.18-0.36-2.23-1-3.08c-0.65-0.86-1.59-1.53-2.74-1.95c-2.06-0.76-4.77-0.72-7.69,0.43l-0.01,0L4.45,23.66z M71.77,23.78
		c-0.37,0.17-0.81,0.01-0.98-0.36c-0.17-0.37-0.01-0.81,0.36-0.98l31.93-14.65c0.02-0.01,0.04-0.02,0.06-0.02
		c3.28-1.3,6.38-1.34,8.76-0.46c1.41,0.52,2.58,1.36,3.41,2.46c0.83,1.1,1.3,2.45,1.29,3.96c0,2.23-1.02,4.81-3.41,7.5
		c-0.27,0.3-0.74,0.33-1.04,0.06c-0.3-0.27-0.33-0.74-0.06-1.04c2.13-2.4,3.04-4.64,3.04-6.53c0-1.18-0.36-2.23-1-3.08
		c-0.65-0.86-1.59-1.53-2.74-1.95c-2.07-0.76-4.79-0.72-7.71,0.44L71.77,23.78z"/>
</g>
<g>
	<path style="fill:#FFFFFF;" d="M11,44.75h-0.04v0.04h-0.57v1.57c0,0.09-0.01,0.16-0.03,0.23c-0.02,0.07-0.06,0.15-0.12,0.25
		c-0.02,0.02-0.04,0.06-0.08,0.11c-0.02,0.02-0.05,0.05-0.09,0.09c-0.05,0.04-0.11,0.07-0.19,0.08l-0.47-0.47l0.15-0.01l0.08-0.04
		l0.03-0.03l0.04-0.03l0.04-0.05l0.03-0.11l0.02-0.07v-1.52H8.44v2.23l2.29,1.4l0.09,0.09l0.06,0.09c0.02,0.03,0.04,0.07,0.04,0.12
		l0.02,0.1c0,0.14-0.05,0.27-0.14,0.37c-0.03,0.05-0.09,0.09-0.16,0.13c-0.04,0.03-0.11,0.05-0.21,0.07l-0.41-0.45l0.14-0.08
		l0.06-0.03l0.12-0.1c0.01-0.01,0.02-0.03,0.03-0.08l-0.04-0.03l-0.05-0.04l-0.06-0.06l-2.34-1.38v-2.34H7.56V44.3H11V44.75z
		 M15.45,44.75h-0.04v0.04h-1.87v1.26l0.21-0.12c0.09-0.05,0.17-0.09,0.25-0.11l0.23-0.04c0.15,0,0.28,0.03,0.38,0.1
		c0.24,0.1,0.41,0.32,0.52,0.65c0.04,0.14,0.06,0.28,0.06,0.43c0,0.25-0.03,0.47-0.1,0.65c-0.03,0.06-0.07,0.15-0.11,0.25
		c-0.16,0.35-0.34,0.57-0.54,0.66l-0.42-0.45c0.09,0,0.17-0.03,0.22-0.08c0.05-0.05,0.14-0.16,0.25-0.32
		c0.1-0.14,0.18-0.31,0.25-0.49c0.06-0.17,0.09-0.32,0.09-0.47l-0.03-0.16c-0.05-0.12-0.11-0.19-0.19-0.22
		c-0.08-0.02-0.15-0.04-0.22-0.04c-0.06,0-0.14,0.01-0.24,0.05c-0.1,0.03-0.2,0.09-0.32,0.19l-0.13,0.1l-0.16,0.12v2.24l-0.54-0.4
		v-1.41l-0.11,0.07l-0.13,0.06l-0.33,0.14l-0.24,0.03c-0.13,0-0.27-0.03-0.43-0.1c-0.23-0.1-0.42-0.31-0.57-0.61
		c-0.05-0.14-0.07-0.28-0.07-0.42c0-0.21,0.06-0.38,0.18-0.53c0.05-0.06,0.09-0.11,0.15-0.16c0.2-0.13,0.37-0.21,0.53-0.24
		c0.08-0.02,0.15-0.02,0.22-0.02h0.14l0.17,0.03l0.25,0.54h-0.17l-0.13-0.03h-0.09c-0.14,0-0.25,0.02-0.33,0.04
		c-0.1,0.01-0.23,0.07-0.37,0.17c-0.03,0.02-0.07,0.06-0.1,0.11c-0.03,0.09-0.05,0.18-0.05,0.25c0,0.2,0.07,0.34,0.2,0.41l0.16,0.05
		l0.21,0.02c0.04,0.01,0.12-0.01,0.25-0.05c0.07-0.02,0.21-0.09,0.43-0.19c0,0,0.03-0.02,0.08-0.05l0.18-0.12v-1.76h-2.08V44.3h4.53
		L15.45,44.75z M22.99,44.75h-0.04v0.04h-1.87v1.26l0.21-0.12c0.09-0.05,0.17-0.09,0.25-0.11l0.23-0.04c0.15,0,0.28,0.03,0.38,0.1
		c0.24,0.1,0.41,0.32,0.52,0.65c0.04,0.14,0.06,0.28,0.06,0.43c0,0.25-0.03,0.47-0.1,0.65c-0.03,0.06-0.07,0.15-0.11,0.25
		c-0.16,0.35-0.34,0.57-0.54,0.66l-0.42-0.45c0.09,0,0.17-0.03,0.22-0.08c0.05-0.05,0.14-0.16,0.25-0.32
		c0.1-0.14,0.18-0.31,0.25-0.49c0.06-0.17,0.09-0.32,0.09-0.47l-0.03-0.16c-0.05-0.12-0.11-0.19-0.19-0.22
		c-0.08-0.02-0.15-0.04-0.22-0.04c-0.06,0-0.14,0.01-0.24,0.05c-0.1,0.03-0.2,0.09-0.32,0.19l-0.13,0.1l-0.15,0.12v2.24l-0.54-0.4
		v-1.41l-0.11,0.07l-0.13,0.06l-0.33,0.14l-0.24,0.03c-0.13,0-0.27-0.03-0.42-0.1c-0.23-0.1-0.42-0.31-0.57-0.61
		c-0.05-0.14-0.07-0.28-0.07-0.42c0-0.21,0.06-0.38,0.18-0.53c0.05-0.06,0.09-0.11,0.15-0.16c0.2-0.13,0.37-0.21,0.53-0.24
		c0.08-0.02,0.15-0.02,0.22-0.02h0.14l0.17,0.03l0.25,0.54h-0.17l-0.13-0.03H19.9c-0.14,0-0.25,0.02-0.33,0.04
		c-0.1,0.01-0.23,0.07-0.37,0.17c-0.03,0.02-0.07,0.06-0.1,0.11c-0.03,0.09-0.05,0.18-0.05,0.25c0,0.2,0.07,0.34,0.2,0.41l0.16,0.05
		l0.21,0.02c0.04,0.01,0.13-0.01,0.25-0.05c0.07-0.02,0.21-0.09,0.43-0.19c0,0,0.03-0.02,0.08-0.05l0.18-0.12v-1.76h-2.08V44.3h4.53
		L22.99,44.75z M26.3,44.75h-0.04v0.04H25.2v1.11h-1.18c-0.06,0-0.13,0.02-0.21,0.05c-0.06,0.02-0.11,0.06-0.16,0.13
		c-0.05,0.04-0.08,0.1-0.11,0.19l-0.03,0.23c0,0.25,0.08,0.45,0.24,0.61c0.16,0.16,0.36,0.24,0.6,0.24l0.21-0.03l0.15-0.05
		l-0.06-0.11l-0.04-0.2l0.03-0.16c0.02-0.05,0.05-0.1,0.09-0.16c0.02-0.03,0.07-0.06,0.15-0.1l0.2-0.03c0.07,0,0.13,0.02,0.17,0.05
		c0.06,0.03,0.11,0.08,0.14,0.13l0.09,0.17l0.03,0.18c0,0.2-0.06,0.36-0.17,0.51l-0.07,0.09l-0.08,0.06l0.67,0.96l-0.51,0.15
		l-0.41-1.03l-0.19,0.05l-0.21,0.02c-0.15,0.01-0.33-0.03-0.53-0.12c-0.27-0.12-0.49-0.32-0.67-0.61c-0.16-0.26-0.24-0.55-0.24-0.87
		c0-0.26,0.05-0.46,0.15-0.61c0.03-0.08,0.1-0.14,0.2-0.18c0.07-0.05,0.16-0.07,0.27-0.07h0.93v-0.61h-1.83V44.3h3.46L26.3,44.75z
		 M29.82,44.75h-0.04v0.04h-0.59v4.17l-0.52-0.41V46.8h-1.34v0.34c0,0.14-0.05,0.21-0.16,0.23c-0.17,0-0.35-0.11-0.57-0.34
		c-0.07-0.07-0.14-0.17-0.22-0.31c-0.05-0.08-0.08-0.16-0.08-0.23c0-0.12,0.06-0.18,0.17-0.2h0.32v-1.49h-0.78V44.3h3.8L29.82,44.75
		z M28.72,46.33h-0.04v-1.54h-1.34v1.49h1.38L28.72,46.33z M35.95,46.48H35.9l0.04,0.04l-0.16,0.08l-0.15,0.05l-0.17,0.04h-0.14
		c-0.31,0.02-0.57-0.1-0.77-0.35c-0.02,0.07-0.04,0.12-0.07,0.16c-0.1,0.2-0.21,0.34-0.35,0.45l-0.2,0.11l0.02,0.03l0.15,0.21
		l0.19,0.26l0.33,0.42l0.16,0.19l0.24,0.24c0.05,0.06,0.11,0.11,0.2,0.15l-0.41,0.24l-0.29-0.31l-0.22-0.28l-0.22-0.3l-0.53-0.84
		l-0.16-0.27l-0.18-0.35l-0.08-0.28l0.01-0.09l0.06-0.08l0.09-0.05l0.09-0.02l0.62-0.01v-1.14h-1.15V44.3h2.6v0.49h-0.89v1.33
		l0.25,0.1l0.28,0.03c0.24,0,0.44-0.05,0.61-0.16c0.05-0.03,0.13-0.09,0.23-0.18L35.95,46.48z M38.92,44.75h-0.04v0.04H38.2v4.17
		l-0.53-0.4v-1.17l-0.04,0.03l-0.23,0.11l-0.34,0.14l-0.27,0.03c-0.34,0-0.63-0.13-0.87-0.4c-0.05-0.05-0.09-0.12-0.13-0.2
		l-0.13-0.23c-0.05-0.17-0.08-0.34-0.08-0.52c0-0.41,0.21-0.69,0.62-0.85c0.13-0.05,0.37-0.1,0.73-0.14
		c0.09-0.01,0.19-0.02,0.29-0.02l0.33,0.53h-0.29c-0.15-0.01-0.29,0-0.41,0.04c-0.29,0.03-0.53,0.14-0.7,0.34
		c-0.07,0.1-0.11,0.22-0.11,0.35c0,0.19,0.05,0.34,0.16,0.47c0.03,0.03,0.09,0.08,0.18,0.13c0.1,0.03,0.2,0.04,0.31,0.04
		c0.11,0,0.22-0.02,0.32-0.06c0.1-0.04,0.22-0.11,0.37-0.21c0.12-0.08,0.19-0.15,0.22-0.2c0.04-0.03,0.07-0.07,0.08-0.1v-1.88h-2.31
		V44.3h3.57V44.75z M41.45,44.75H41.4v0.04h-2.68V44.3h2.72L41.45,44.75z M41.9,47.25h-0.04l0.03,0.03
		c-0.02,0.03-0.06,0.07-0.14,0.11l-0.25,0.14c-0.08,0.04-0.21,0.1-0.4,0.17c-0.11,0.03-0.22,0.05-0.33,0.05
		c-0.32,0-0.6-0.09-0.86-0.26c-0.31-0.2-0.46-0.44-0.46-0.72l0.02-0.15c0.02-0.13,0.08-0.26,0.17-0.38c0.06-0.08,0.13-0.15,0.22-0.2
		h-0.79l-0.22-0.54h2.46l0.22,0.54h-0.86c-0.02,0-0.06,0.02-0.14,0.06c-0.09,0.05-0.17,0.11-0.24,0.18l-0.16,0.15L40,46.56
		l-0.07,0.16c-0.01,0.02-0.02,0.07-0.02,0.14c0,0.07,0.01,0.14,0.04,0.22c0.02,0.03,0.07,0.07,0.14,0.11l0.19,0.05h0.33
		c0.18,0.01,0.38-0.05,0.61-0.18c0.09-0.05,0.16-0.09,0.22-0.14l0.26-0.21c0.05-0.03,0.11-0.12,0.2-0.26L41.9,47.25z M45.31,44.75
		h-0.04v0.04H44.4v0.6c0.17,0.14,0.31,0.33,0.44,0.58c0.06,0.11,0.1,0.23,0.13,0.35c0.03,0.12,0.04,0.25,0.04,0.37
		c0,0.45-0.14,0.83-0.4,1.16c-0.3,0.36-0.68,0.54-1.15,0.54c-0.54,0-0.97-0.13-1.32-0.38c-0.34-0.26-0.51-0.6-0.51-1.04
		c0-0.08,0.01-0.16,0.03-0.22c0.08-0.16,0.19-0.28,0.33-0.36l0.18-0.09l-0.51-0.46v-1.02h-0.35V44.3h4V44.75z M44.62,46.44
		c0-0.24-0.04-0.4-0.12-0.51c-0.08-0.1-0.19-0.16-0.33-0.16c-0.07,0-0.12,0.01-0.16,0.03c-0.06,0.01-0.12,0.1-0.17,0.25l-0.03,0.16
		c0,0.13,0.03,0.25,0.08,0.37c0.07,0.13,0.16,0.24,0.27,0.31c0.02,0.02,0.06,0.06,0.14,0.1l0.19,0.12l0.02-0.08l0.02-0.03l0.02-0.04
		l0.06-0.24C44.61,46.67,44.62,46.57,44.62,46.44 M44.31,47.38c-0.06-0.01-0.12-0.04-0.18-0.08c-0.3-0.17-0.53-0.39-0.68-0.67
		c-0.08-0.14-0.12-0.28-0.12-0.42c0-0.2,0.05-0.36,0.16-0.51c0.06-0.09,0.13-0.16,0.19-0.19l0.23-0.13v-0.61H42.2v0.93l0.29,0.4
		h0.03l0.12-0.04l0.13-0.03l0.13-0.02l0.3,0.51c-0.12,0-0.22,0.02-0.31,0.05c-0.04,0.01-0.14,0.04-0.29,0.1
		c-0.27,0.11-0.41,0.26-0.44,0.47c0,0.14,0.02,0.25,0.06,0.33c0.09,0.18,0.27,0.33,0.54,0.42c0.13,0.03,0.28,0.05,0.43,0.05
		c0.22,0,0.47-0.1,0.73-0.3l0.21-0.16l0.17-0.16L44.31,47.38z M48.95,44.75h-0.04v0.04h-0.66v4.16l-0.54-0.35v-2.55h-1.42
		c-0.05,0-0.1,0.01-0.17,0.04l-0.13,0.12c-0.04,0.06-0.07,0.11-0.09,0.17l-0.03,0.22c0,0.2,0.04,0.4,0.12,0.61
		c0.1,0.25,0.23,0.47,0.41,0.66l0.22,0.24c0.06,0.06,0.18,0.18,0.37,0.35l-0.38,0.18c-0.1-0.03-0.19-0.1-0.27-0.22l-0.38-0.57
		c-0.19-0.29-0.33-0.56-0.42-0.8c-0.09-0.25-0.14-0.46-0.14-0.64c0-0.19,0.03-0.35,0.1-0.47c0.02-0.05,0.05-0.09,0.09-0.14l0.1-0.13
		l0.12-0.09l0.11-0.06l0.11-0.02h1.68v-0.7h-2.54V44.3h3.78V44.75z M50.44,44.75H50.4v0.04h-0.67v4.17l-0.53-0.4v-3.77h-0.53V44.3
		h1.78V44.75z M57.93,44.75h-0.04v0.04h-1.87v1.26l0.21-0.12c0.09-0.05,0.17-0.09,0.25-0.11l0.23-0.04c0.15,0,0.28,0.03,0.38,0.1
		c0.24,0.1,0.41,0.32,0.52,0.65c0.04,0.14,0.06,0.28,0.06,0.43c0,0.25-0.03,0.47-0.1,0.65c-0.03,0.06-0.07,0.15-0.11,0.25
		c-0.16,0.35-0.34,0.57-0.54,0.66l-0.42-0.45c0.09,0,0.17-0.03,0.22-0.08c0.05-0.05,0.14-0.16,0.25-0.32
		c0.1-0.14,0.18-0.31,0.25-0.49c0.06-0.17,0.1-0.32,0.1-0.47l-0.03-0.16c-0.05-0.12-0.11-0.19-0.19-0.22
		c-0.08-0.02-0.15-0.04-0.22-0.04c-0.06,0-0.14,0.01-0.24,0.05c-0.1,0.03-0.2,0.09-0.32,0.19l-0.13,0.1l-0.16,0.12v2.24l-0.54-0.4
		v-1.41l-0.11,0.07l-0.13,0.06l-0.33,0.14l-0.24,0.03c-0.13,0-0.27-0.03-0.42-0.1c-0.23-0.1-0.42-0.31-0.57-0.61
		c-0.05-0.14-0.07-0.28-0.07-0.42c0-0.21,0.06-0.38,0.18-0.53c0.05-0.06,0.09-0.11,0.15-0.16c0.2-0.13,0.37-0.21,0.53-0.24
		c0.08-0.02,0.15-0.02,0.22-0.02h0.14l0.17,0.03l0.25,0.54h-0.17l-0.13-0.03h-0.09c-0.14,0-0.25,0.02-0.33,0.04
		c-0.1,0.01-0.23,0.07-0.37,0.17c-0.03,0.02-0.07,0.06-0.1,0.11c-0.03,0.09-0.05,0.18-0.05,0.25c0,0.2,0.07,0.34,0.2,0.41l0.16,0.05
		l0.21,0.02c0.04,0.01,0.12-0.01,0.25-0.05c0.07-0.02,0.21-0.09,0.43-0.19c0,0,0.03-0.02,0.08-0.05l0.18-0.12v-1.76H53.4V44.3h4.53
		L57.93,44.75z M59.39,44.75h-0.04v0.04h-0.58v4.17l-0.54-0.4v-3.77h-0.45V44.3h0.59c-0.01-0.06-0.04-0.15-0.08-0.25
		c-0.04-0.1-0.13-0.26-0.26-0.46c-0.28-0.42-0.56-0.63-0.85-0.63c-0.07,0-0.14,0.01-0.22,0.04c-0.11,0.07-0.19,0.17-0.24,0.31
		c-0.02,0.07-0.04,0.17-0.05,0.29l0.03,0.22l0.07,0.21c0.02,0.04,0.06,0.1,0.12,0.16c0.05,0.05,0.13,0.12,0.24,0.19h-0.36
		c-0.05-0.02-0.09-0.05-0.14-0.11l-0.17-0.23c-0.09-0.12-0.15-0.24-0.2-0.36c-0.05-0.12-0.07-0.24-0.07-0.34
		c0-0.12,0.02-0.23,0.06-0.34c0.03-0.08,0.08-0.17,0.16-0.28c0.07-0.08,0.17-0.14,0.28-0.19c0.11-0.05,0.22-0.07,0.34-0.07
		c0.42,0,0.82,0.29,1.19,0.88c0.09,0.14,0.21,0.35,0.35,0.61c0.07,0.13,0.11,0.24,0.12,0.34h0.7V44.75z M67.51,44.75h-0.04v0.03
		h-0.58v4.18l-0.54-0.41v-1.78l-0.03,0.02l-0.11,0.05c-0.02,0-0.06,0.02-0.14,0.05h-0.15c-0.16,0.01-0.32-0.03-0.49-0.13
		c-0.05-0.02-0.12-0.07-0.22-0.14l-0.16-0.11l-0.2-0.16l0.06-0.06l0.12,0.2l0.12,0.18l0.18,0.35l0.06,0.23
		c0,0.26-0.08,0.49-0.24,0.69c-0.13,0.15-0.31,0.26-0.54,0.32c-0.08,0.02-0.17,0.03-0.28,0.03c-0.35,0-0.67-0.17-0.96-0.5
		c-0.16-0.18-0.35-0.51-0.6-0.97c-0.1-0.19-0.18-0.4-0.22-0.61c-0.02-0.1-0.03-0.19-0.03-0.27l0.3-0.16c0,0.3,0.11,0.65,0.32,1.06
		c0.15,0.29,0.32,0.51,0.5,0.64c0.18,0.13,0.38,0.2,0.59,0.2c0.21,0,0.37-0.07,0.49-0.2c0.07-0.09,0.13-0.2,0.17-0.34
		c0-0.04,0.01-0.09,0.01-0.16c0-0.14-0.02-0.27-0.06-0.38c-0.04-0.11-0.1-0.2-0.19-0.27l-0.21,0.09l-0.24,0.04l-0.23-0.04
		l-0.33-0.48h0.19c0.39,0,0.67-0.1,0.84-0.3c0.07-0.08,0.1-0.17,0.1-0.26c0-0.1-0.01-0.19-0.03-0.26c-0.02-0.07-0.07-0.14-0.14-0.19
		c-0.07-0.09-0.21-0.14-0.42-0.17l-0.18,0.02l-0.19,0.06c-0.18,0.06-0.31,0.14-0.37,0.25l-0.3-0.5l0.16-0.09l0.11-0.06
		c0.1-0.06,0.21-0.1,0.31-0.12l0.21-0.04h0.13c0.15,0,0.27,0.03,0.35,0.09c0.28,0.13,0.51,0.36,0.69,0.71
		c0.07,0.14,0.11,0.29,0.11,0.45v0.2c-0.01,0.05-0.03,0.14-0.09,0.26L65,46.15l-0.08,0.07l0.13,0.09l0.17,0.07l0.17,0.05l0.2,0.01
		h0.1l0.09-0.02l0.09-0.02l0.1-0.03l0.2-0.07l0.17-0.11v-1.41h-0.89l-0.27-0.49h2.32V44.75z M69.09,44.75h-0.04v0.04h-0.67v4.17
		l-0.54-0.4v-3.77h-0.53V44.3h1.78V44.75z M68.32,44.26c0.01,0.02,0.01,0.04,0,0.04c-0.01,0.01-0.04,0.02-0.09,0.02l0.07,0.07
		l-0.28,0l-0.12-0.18l-0.84-1.05c-0.04-0.05-0.08-0.08-0.12-0.09l-0.18-0.03h-0.83l-0.3-0.64h0.98c0.08,0,0.14,0.01,0.18,0.02
		l0.17,0.02l0.05,0.01c0.04,0.01,0.07,0.02,0.08,0.03l0.29,0.41l0.33,0.49l0.12,0.16l0.1,0.17l0.12,0.17l0.11,0.18L68.32,44.26z
		 M72.25,44.75H72.2v0.04h-1.19l0.06,0.31l0.03,0.33c0,0.58-0.23,1.12-0.68,1.62c0.06,0.14,0.14,0.29,0.24,0.42l0.31,0.45l0.38,0.42
		c0.08,0.09,0.23,0.21,0.45,0.35l-0.43,0.25l-0.29-0.35l-0.24-0.33l-0.28-0.4l-0.21-0.31l-0.4-0.6l-0.19-0.34l-0.12-0.25l-0.04-0.23
		c0-0.13,0.07-0.2,0.21-0.2l0.69-0.01v-1.14h-1.57V44.3h3.32L72.25,44.75z"/>
	<path style="fill:#FFFFFF;" d="M16.77,25.4h-0.06l0.06,0.05l-0.2,0.1l-0.19,0.07l-0.22,0.05h-0.18c-0.4,0.02-0.73-0.13-0.99-0.44
		c-0.02,0.09-0.05,0.16-0.09,0.21c-0.13,0.25-0.28,0.44-0.45,0.58l-0.25,0.14l0.02,0.04l0.19,0.27l0.25,0.33l0.42,0.53l0.21,0.25
		l0.31,0.31c0.06,0.07,0.14,0.14,0.26,0.19l-0.53,0.31l-0.37-0.4l-0.28-0.36l-0.28-0.39l-0.68-1.08l-0.2-0.34l-0.23-0.46L13.19,25
		l0.01-0.11l0.08-0.1l0.11-0.07l0.11-0.02l0.8-0.01v-1.47h-1.48v-0.63h3.34v0.63h-1.14v1.71l0.32,0.12l0.36,0.04
		c0.3,0,0.57-0.07,0.79-0.21c0.07-0.04,0.16-0.11,0.29-0.23V25.4z M20.59,23.17h-0.06v0.06h-0.87v5.36l-0.69-0.51v-1.51l-0.06,0.03
		l-0.29,0.14l-0.43,0.18l-0.34,0.04c-0.44,0-0.81-0.17-1.12-0.51c-0.06-0.07-0.11-0.15-0.17-0.26l-0.17-0.3
		c-0.07-0.21-0.1-0.44-0.1-0.67c0-0.53,0.27-0.89,0.8-1.1c0.16-0.07,0.47-0.13,0.93-0.18c0.12-0.01,0.24-0.02,0.38-0.02l0.42,0.68
		h-0.38c-0.19-0.01-0.37,0-0.53,0.06c-0.38,0.04-0.68,0.18-0.9,0.44c-0.1,0.13-0.14,0.28-0.14,0.45c0,0.24,0.07,0.44,0.2,0.6
		c0.04,0.04,0.12,0.1,0.23,0.16c0.12,0.04,0.26,0.06,0.4,0.06c0.15,0,0.28-0.03,0.41-0.08c0.13-0.05,0.29-0.15,0.47-0.28
		c0.15-0.1,0.24-0.19,0.29-0.26c0.05-0.04,0.08-0.09,0.1-0.13v-2.41h-2.98v-0.63h4.59V23.17z M23.85,23.17h-0.06v0.06h-3.44v-0.63
		h3.5V23.17z M24.42,26.39h-0.06l0.04,0.03c-0.02,0.04-0.08,0.09-0.18,0.14l-0.32,0.18c-0.1,0.05-0.27,0.12-0.51,0.22
		c-0.15,0.04-0.29,0.07-0.42,0.07c-0.41,0-0.78-0.11-1.11-0.33c-0.39-0.26-0.59-0.57-0.59-0.93l0.02-0.2
		c0.02-0.17,0.1-0.33,0.22-0.49c0.07-0.11,0.17-0.19,0.28-0.25h-1.02l-0.29-0.7h3.17l0.29,0.7h-1.11c-0.02,0-0.08,0.03-0.18,0.08
		c-0.12,0.07-0.22,0.14-0.31,0.23l-0.21,0.19l-0.16,0.18l-0.09,0.2c-0.01,0.03-0.02,0.09-0.02,0.18c0,0.09,0.02,0.19,0.05,0.29
		c0.03,0.04,0.09,0.09,0.18,0.14l0.24,0.07h0.42c0.23,0.01,0.49-0.06,0.79-0.24c0.11-0.06,0.2-0.12,0.28-0.18l0.33-0.27
		c0.06-0.04,0.15-0.16,0.26-0.34V26.39z M28.81,23.17h-0.06v0.06h-1.11v0.77c0.21,0.18,0.4,0.43,0.57,0.74
		c0.07,0.14,0.13,0.29,0.17,0.45c0.04,0.16,0.06,0.32,0.06,0.47c0,0.58-0.17,1.07-0.52,1.49c-0.39,0.46-0.88,0.69-1.48,0.69
		c-0.69,0-1.25-0.16-1.69-0.49c-0.44-0.33-0.66-0.78-0.66-1.34c0-0.1,0.01-0.2,0.04-0.29c0.1-0.2,0.24-0.36,0.42-0.47l0.23-0.12
		l-0.66-0.59v-1.31h-0.45v-0.63h5.14V23.17z M27.92,25.34c0-0.3-0.05-0.52-0.16-0.66c-0.1-0.13-0.24-0.2-0.42-0.2
		c-0.09,0-0.16,0.01-0.21,0.04c-0.08,0.01-0.16,0.12-0.22,0.32l-0.03,0.21c0,0.16,0.03,0.32,0.1,0.48c0.1,0.17,0.21,0.3,0.34,0.4
		c0.02,0.03,0.08,0.07,0.18,0.13l0.24,0.16l0.02-0.1l0.02-0.04l0.02-0.06l0.08-0.31C27.91,25.63,27.92,25.51,27.92,25.34
		 M27.53,26.55c-0.07-0.02-0.15-0.05-0.23-0.1c-0.38-0.21-0.68-0.5-0.88-0.86c-0.1-0.18-0.16-0.36-0.16-0.53
		c0-0.25,0.07-0.47,0.21-0.66c0.08-0.12,0.16-0.2,0.25-0.24L27.01,24v-0.78h-2.2v1.2l0.37,0.51h0.04l0.15-0.06l0.17-0.04l0.17-0.03
		l0.38,0.66c-0.15,0-0.29,0.02-0.4,0.07c-0.05,0.01-0.18,0.05-0.38,0.13c-0.34,0.14-0.53,0.34-0.56,0.6c0,0.18,0.03,0.32,0.08,0.42
		c0.12,0.24,0.35,0.42,0.7,0.54c0.17,0.04,0.36,0.07,0.55,0.07c0.29,0,0.6-0.13,0.94-0.39l0.28-0.21l0.22-0.2L27.53,26.55z"/>
	<path style="fill:#FFFFFF;" d="M54.32,23.17h-0.06v0.06h-0.68l-0.37-0.63h1.1V23.17z M54.9,25.77h-0.06v0.05h-1.5v0.62
		c0,0.05-0.01,0.09-0.02,0.12l-0.04,0.09l-0.11,0.07l-0.1,0.02c-0.1,0-0.2-0.04-0.31-0.12l-0.22-0.17c-0.36-0.27-0.6-0.56-0.72-0.87
		c-0.03-0.06-0.05-0.13-0.06-0.22l0.02-0.08l0.07-0.08l0.09-0.04l0.09-0.01h0.67v-0.56l-0.52-0.03c-0.24-0.01-0.48-0.12-0.72-0.31
		c-0.23-0.17-0.34-0.43-0.34-0.77c0-0.16,0.02-0.29,0.06-0.39c0.14-0.3,0.39-0.47,0.74-0.5h0.13c0.26,0,0.55,0.1,0.89,0.3
		c0.15,0.09,0.25,0.19,0.32,0.32c0.07,0.13,0.1,0.27,0.1,0.44v1.5h1.55V25.77z M52.69,24.2v-0.84l-0.03-0.1l-0.08-0.09
		c-0.05-0.04-0.1-0.06-0.13-0.07l-0.14-0.02c-0.23,0-0.4,0.05-0.52,0.14c-0.09,0.07-0.13,0.2-0.13,0.37c0,0.08,0.03,0.16,0.09,0.23
		c0.06,0.07,0.14,0.14,0.24,0.2l0.3,0.12l0.3,0.04l0.08-0.01L52.69,24.2z M56.32,23.17h-0.06v0.06H55.4v5.36l-0.69-0.51v-4.85h-0.68
		v-0.63h2.29V23.17z M58.23,23.17h-0.05v0.06h-0.87v5.36l-0.69-0.51v-4.85h-0.68v-0.63h2.29V23.17z M62.23,23.17h-0.06v0.06h-1.53
		l0.08,0.4l0.04,0.42c0,0.75-0.29,1.44-0.88,2.09c0.08,0.19,0.18,0.37,0.31,0.54l0.41,0.58l0.49,0.54c0.1,0.12,0.3,0.27,0.58,0.46
		l-0.55,0.32l-0.38-0.46l-0.31-0.42l-0.36-0.51l-0.27-0.4l-0.51-0.78l-0.24-0.43l-0.16-0.32l-0.06-0.3c0-0.17,0.09-0.26,0.27-0.26
		l0.89-0.01v-1.47h-2.02v-0.63h4.26V23.17z M66.67,23.17h-0.06v0.06h-0.85v5.35l-0.69-0.46v-3.28h-1.82c-0.06,0-0.13,0.02-0.22,0.06
		l-0.16,0.15c-0.05,0.07-0.09,0.15-0.11,0.22l-0.03,0.28c0,0.25,0.05,0.51,0.16,0.78c0.13,0.32,0.3,0.6,0.52,0.86l0.28,0.31
		c0.07,0.08,0.23,0.23,0.48,0.44l-0.49,0.23c-0.13-0.04-0.24-0.13-0.34-0.29l-0.49-0.74c-0.24-0.37-0.43-0.71-0.54-1.03
		c-0.12-0.32-0.18-0.59-0.18-0.83c0-0.25,0.04-0.45,0.12-0.6c0.02-0.06,0.06-0.12,0.11-0.18l0.13-0.17l0.16-0.12l0.14-0.08
		l0.14-0.02h2.16v-0.9h-3.27v-0.63h4.86V23.17z"/>
</g>
</svg>
